
<svg width="32" height="32" viewBox="0 0 32 32" fill="none" xmlns="http://www.w3.org/2000/svg">
  <circle cx="16" cy="16" r="16" fill="#8247E5"/>
  <path d="M20.1245 11.8331C19.7553 11.6151 19.27 11.6151 18.8428 11.8331L16.3595 13.2706L14.6427 14.2069L12.1594 15.6444C11.7902 15.8624 11.3049 15.8624 10.8777 15.6444L8.92504 14.5338C8.55587 14.3158 8.28254 13.9333 8.28254 13.4962V11.3297C8.28254 10.8926 8.49796 10.5101 8.92504 10.2921L10.8777 9.18146C11.2469 8.96346 11.7322 8.96346 12.1594 9.18146L14.1121 10.2921C14.4813 10.5101 14.7546 10.8926 14.7546 11.3297V12.7672L16.4714 11.7762V10.3387C16.4714 9.90157 16.2559 9.51907 15.8289 9.30107L12.2153 7.19246C11.8461 6.97446 11.3608 6.97446 10.9336 7.19246L7.20429 9.30107C6.77721 9.51907 6.56179 9.90157 6.56179 10.3387V14.4872C6.56179 14.9243 6.77721 15.3068 7.20429 15.5248L10.9336 17.6334C11.3028 17.8514 11.7881 17.8514 12.2153 17.6334L14.6986 16.25L16.4154 15.2591L18.8987 13.8762C19.2679 13.6582 19.7532 13.6582 20.1804 13.8762L22.1331 14.9868C22.5023 15.2048 22.7756 15.5872 22.7756 16.0243V18.1909C22.7756 18.628 22.5602 19.0105 22.1331 19.2285L20.1804 20.3391C19.8112 20.5571 19.3259 20.5571 18.8987 20.3391L16.9459 19.2285C16.5768 19.0105 16.3034 18.628 16.3034 18.1909V16.7534L14.5865 17.7444V19.1819C14.5865 19.619 14.802 20.0015 15.229 20.2195L18.9584 22.3282C19.3276 22.5462 19.8129 22.5462 20.2401 22.3282L23.9694 20.2195C24.3386 20.0015 24.6119 19.619 24.6119 19.1819V15.0335C24.6119 14.5963 24.3965 14.2138 23.9694 13.9958L20.1245 11.8331Z" fill="white"/>
</svg>
