
<svg width="32" height="32" viewBox="0 0 32 32" fill="none" xmlns="http://www.w3.org/2000/svg">
  <circle cx="16" cy="16" r="16" fill="#2775CA"/>
  <path d="M20.6175 14.0875C20.6175 10.975 18.4175 10.0688 16.015 10.0688C13.6125 10.0688 11.4125 10.975 11.4125 14.0875C11.4125 17.8563 15.635 17.5875 15.635 19.625C15.635 20.4688 14.96 20.8813 13.875 20.8813C12.5125 20.8813 11.68 20.1375 11.68 18.7125H8.525C8.525 22.225 10.9125 23.4188 13.875 23.4188C16.8375 23.4188 18.79 22.225 18.79 19.625C18.79 15.8563 14.565 15.8563 14.565 14.0875C14.565 13.325 15.1875 12.6063 16.015 12.6063C16.8425 12.6063 17.465 13.1438 17.465 14.0875H20.62H20.6175Z" fill="white"/>
</svg>
